<?xml version="1.0" encoding="UTF-8" standalone="no"?>
<!-- Created with Inkscape (http://www.inkscape.org/) -->

<svg
   width="16"
   height="16"
   viewBox="0 0 16 16"
   version="1.1"
   id="svg1"
   xmlns="http://www.w3.org/2000/svg"
   xmlns:svg="http://www.w3.org/2000/svg">
  <defs
     id="defs1" />
  <g
     id="layer1">
    <path
       id="path20"
       style="fill:none;stroke:#6c707e;stroke-width:1;stroke-linecap:butt;stroke-linejoin:round;stroke-dasharray:none;stroke-opacity:1"
       d="M 11.362096,7.1030367 C 11.495572,6.8919619 11.735996,6.7740373 12,6.7740373 c -0.432812,0 -0.781249,-0.3484379 -0.781249,-0.78125 V 5.103362 c 0,-0.4328121 0.348437,-0.78125 0.781249,-0.78125 V 3 3 C 12,2.4460006 11.553999,2 11,2 H 9.3118768 C 9.3118768,2.7245289 8.7245289,3.3118768 8,3.3118768 7.2754711,3.3118768 6.6881232,2.7245289 6.6881232,2 H 5 C 4.4460006,2 4,2.4460006 4,3 v 1.322112 c 0.4328116,0 0.781249,0.3484374 0.781249,0.78125 v 0.889425 c 0,0.4328126 -0.3484374,0.7812506 -0.781249,0.7812506 0.4328116,0 0.781249,0.3484379 0.781249,0.78125 V 8.444713 c 0,0.4328121 -0.3484374,0.78125 -0.781249,0.78125 0.4328116,0 0.781249,0.3484377 0.781249,0.78125 v 0.889425 c 0,0.432813 -0.3484374,0.78125 -0.781249,0.78125 V 13 c 0,0.553999 0.4460006,1 1,1 h 1.875" />
    <path
       id="path24"
       style="fill:none;stroke:#6c707e;stroke-width:1;stroke-linecap:round;stroke-linejoin:round;stroke-dasharray:none;stroke-opacity:1"
       d="M 4.781249,10.896637 V 5.103362" />
    <path
       style="color:#000000;fill:#6c707e;fill-opacity:1;stroke-linejoin:round;-inkscape-stroke:none"
       d="m 10.71875,5.1035156 v 1.5957031 l 1,0.6249835 V 5.1035156 Z"
       id="path23" />
    <path
       fill-rule="evenodd"
       clip-rule="evenodd"
       d="m 8.2048,8.98075 c 0,-1.1777397 1.2951,-1.8960697 2.2942,-1.2724797 L 14.501,10.2061 c 0.941,0.5874 0.941,1.9576 0,2.545 l -4.002,2.4978 C 9.4999,15.8725 8.2048,15.1542 8.2048,13.9764 Z M 9.9695,8.55659 C 9.6365,8.3487303 9.2048,8.58817 9.2048,8.98075 v 4.99565 c 0,0.3926 0.4317,0.632 0.7647,0.4242 l 4.002,-2.4979 c 0.3137,-0.1957 0.3137,-0.6525 0,-0.8483 z"
       fill="#57965c"
       id="path1"
       style="fill:#208a3c;fill-opacity:1" />
    <path
       d="m 9.2047875,8.9807483 c 0,-0.39258 0.4317,-0.63202 0.7647,-0.42416 l 4.0019995,2.4977897 c 0.3137,0.1958 0.3137,0.6526 0,0.8484 l -4.0019995,2.4978 c -0.333,0.2079 -0.7647,-0.0316 -0.7647,-0.4242 z"
       fill="#f2fcf3"
       id="path2" />
  </g>
</svg>
