<?xml version="1.0" encoding="UTF-8" standalone="no"?>
<!-- Created with Inkscape (http://www.inkscape.org/) -->

<svg
   width="16"
   height="16"
   viewBox="0 0 16 16"
   version="1.1"
   id="svg1"
   inkscape:version="1.3.2 (091e20e, 2023-11-25, custom)"
   sodipodi:docname="v1_clean.svg"
   inkscape:export-filename="runner_dark.svg"
   inkscape:export-xdpi="96"
   inkscape:export-ydpi="96"
   xmlns:inkscape="http://www.inkscape.org/namespaces/inkscape"
   xmlns:sodipodi="http://sodipodi.sourceforge.net/DTD/sodipodi-0.dtd"
   xmlns="http://www.w3.org/2000/svg"
   xmlns:svg="http://www.w3.org/2000/svg">
  <sodipodi:namedview
     id="namedview1"
     pagecolor="#505050"
     bordercolor="#eeeeee"
     borderopacity="1"
     inkscape:showpageshadow="0"
     inkscape:pageopacity="0"
     inkscape:pagecheckerboard="true"
     inkscape:deskcolor="#505050"
     inkscape:document-units="px"
     showguides="true"
     inkscape:zoom="90.509668"
     inkscape:cx="7.7616018"
     inkscape:cy="8.5902425"
     inkscape:window-width="3440"
     inkscape:window-height="1377"
     inkscape:window-x="-8"
     inkscape:window-y="-8"
     inkscape:window-maximized="1"
     inkscape:current-layer="layer1">
    <sodipodi:guide
       position="3,8"
       orientation="-1,0"
       id="guide1"
       inkscape:locked="false"
       inkscape:label=""
       inkscape:color="rgb(0,134,229)" />
    <sodipodi:guide
       position="13,8"
       orientation="-1,0"
       id="guide2"
       inkscape:locked="false"
       inkscape:label=""
       inkscape:color="rgb(0,134,229)" />
    <sodipodi:guide
       position="8,14"
       orientation="0,1"
       id="guide3"
       inkscape:locked="false"
       inkscape:label=""
       inkscape:color="rgb(0,134,229)" />
    <sodipodi:guide
       position="8,2"
       orientation="0,1"
       id="guide4"
       inkscape:locked="false"
       inkscape:label=""
       inkscape:color="rgb(0,134,229)" />
    <sodipodi:guide
       position="4,8"
       orientation="-1,0"
       id="guide5"
       inkscape:locked="false"
       inkscape:label=""
       inkscape:color="rgb(0,134,229)" />
    <sodipodi:guide
       position="12,8"
       orientation="-1,0"
       id="guide6"
       inkscape:locked="false"
       inkscape:label=""
       inkscape:color="rgb(0,134,229)" />
    <sodipodi:guide
       position="8,13"
       orientation="0,1"
       id="guide7"
       inkscape:locked="false"
       inkscape:label=""
       inkscape:color="rgb(0,134,229)" />
    <sodipodi:guide
       position="8,3"
       orientation="0,1"
       id="guide8"
       inkscape:locked="false"
       inkscape:label=""
       inkscape:color="rgb(0,134,229)" />
    <sodipodi:guide
       position="12.5,4.0664062"
       orientation="1,0"
       id="guide15"
       inkscape:locked="false" />
    <sodipodi:guide
       position="8,8"
       orientation="0,-1"
       id="guide17"
       inkscape:locked="false" />
    <sodipodi:guide
       position="3.5,10.398388"
       orientation="1,0"
       id="guide18"
       inkscape:locked="false" />
    <sodipodi:guide
       position="8.4852814,12.177888"
       orientation="0,1"
       id="guide19"
       inkscape:locked="false"
       inkscape:label=""
       inkscape:color="rgb(0,134,229)" />
    <sodipodi:guide
       position="8.6620581,3.822112"
       orientation="0,-1"
       id="guide20"
       inkscape:locked="false" />
  </sodipodi:namedview>
  <defs
     id="defs1" />
  <g
     inkscape:label="Warstwa 1"
     inkscape:groupmode="layer"
     id="layer1">
    <path
       id="path20"
       style="fill:none;stroke:#ced0d6;stroke-width:1;stroke-linecap:butt;stroke-linejoin:round;stroke-dasharray:none;stroke-opacity:1"
       d="M 11.362096,7.1030367 C 11.495572,6.8919619 11.735996,6.7740373 12,6.7740373 c -0.432812,0 -0.781249,-0.3484379 -0.781249,-0.78125 V 5.103362 c 0,-0.4328121 0.348437,-0.78125 0.781249,-0.78125 V 3 3 C 12,2.4460006 11.553999,2 11,2 H 9.3118768 C 9.3118768,2.7245289 8.7245289,3.3118768 8,3.3118768 7.2754711,3.3118768 6.6881232,2.7245289 6.6881232,2 H 5 C 4.4460006,2 4,2.4460006 4,3 v 1.322112 c 0.4328116,0 0.781249,0.3484374 0.781249,0.78125 v 0.889425 c 0,0.4328126 -0.3484374,0.7812506 -0.781249,0.7812506 0.4328116,0 0.781249,0.3484379 0.781249,0.78125 V 8.444713 c 0,0.4328121 -0.3484374,0.78125 -0.781249,0.78125 0.4328116,0 0.781249,0.3484377 0.781249,0.78125 v 0.889425 c 0,0.432813 -0.3484374,0.78125 -0.781249,0.78125 V 13 c 0,0.553999 0.4460006,1 1,1 h 1.875"
       sodipodi:nodetypes="ccssccsscscsscsscsscsscssc" />
    <path
       id="path24"
       style="fill:none;stroke:#ced0d6;stroke-width:1;stroke-linecap:round;stroke-linejoin:round;stroke-dasharray:none;stroke-opacity:1"
       d="M 4.781249,10.896637 V 5.103362"
       sodipodi:nodetypes="cc" />
    <path
       style="color:#000000;fill:#ced0d6;stroke-linejoin:round;-inkscape-stroke:none"
       d="m 10.71875,5.1035156 v 1.5957031 l 1,0.6249835 V 5.1035156 Z"
       id="path23"
       sodipodi:nodetypes="ccccc" />
    <path
       fill-rule="evenodd"
       clip-rule="evenodd"
       d="m 8.2048,8.98075 c 0,-1.1777397 1.2951,-1.8960697 2.2942,-1.2724797 L 14.501,10.2061 c 0.941,0.5874 0.941,1.9576 0,2.545 l -4.002,2.4978 C 9.4999,15.8725 8.2048,15.1542 8.2048,13.9764 Z M 9.9695,8.55659 C 9.6365,8.3487303 9.2048,8.58817 9.2048,8.98075 v 4.99565 c 0,0.3926 0.4317,0.632 0.7647,0.4242 l 4.002,-2.4979 c 0.3137,-0.1957 0.3137,-0.6525 0,-0.8483 z"
       fill="#57965c"
       id="path1" />
  </g>
</svg>
